STARTFONT 2.1
COMMENT converted Oberon font (using FontToBDF by R.Crelier 10.1.91)
FONT Syntax20m.Scn.Fnt
SIZE 20 75 75
FONTBOUNDINGBOX  21 23 0 -6
STARTPROPERTIES 3
FONT_ASCENT 17
FONT_DESCENT 6
DEFAULT_CHAR 0
ENDPROPERTIES
CHARS 121
STARTCHAR c0
ENCODING -1 0
SWIDTH 0 0
DWIDTH 0 0
BBX 0 0 0 0
BITMAP
ENDCHAR
STARTCHAR c9
ENCODING -1 9
SWIDTH 516 0
DWIDTH 16 0
BBX 0 0 0 0
BITMAP
ENDCHAR
STARTCHAR c32
ENCODING -1 32
SWIDTH 129 0
DWIDTH 4 0
BBX 0 0 0 0
BITMAP
ENDCHAR
STARTCHAR c33
ENCODING -1 33
SWIDTH 225 0
DWIDTH 7 0
BBX 3 15 2 0
BITMAP
E0
E0
E0
E0
E0
E0
E0
C0
C0
C0
00
00
E0
E0
E0
ENDCHAR
STARTCHAR c34
ENCODING -1 34
SWIDTH 322 0
DWIDTH 10 0
BBX 6 6 2 9
BITMAP
CC
CC
CC
CC
88
88
ENDCHAR
STARTCHAR c35
ENCODING -1 35
SWIDTH 419 0
DWIDTH 13 0
BBX 11 15 1 0
BITMAP
3180
3180
3180
3180
FFE0
FFE0
3180
3180
3180
FFE0
FFE0
3180
3180
3180
3180
ENDCHAR
STARTCHAR c36
ENCODING -1 36
SWIDTH 354 0
DWIDTH 11 0
BBX 9 19 1 -2
BITMAP
0800
0800
1F80
7F80
E800
E800
E800
E800
7800
3E00
0F00
0B80
0B80
0B80
0B80
FF00
FE00
0800
0800
ENDCHAR
STARTCHAR c37
ENCODING -1 37
SWIDTH 580 0
DWIDTH 18 0
BBX 16 15 1 0
BITMAP
3810
7C30
C620
C660
C640
C6C0
7C80
399C
033E
0263
0663
0C63
0863
183E
301C
ENDCHAR
STARTCHAR c38
ENCODING -1 38
SWIDTH 451 0
DWIDTH 14 0
BBX 13 15 1 0
BITMAP
1F00
3B80
7180
7180
7B00
3E00
1C60
3E60
7760
E7C0
E3C0
E1E0
F3F0
FF78
7C30
ENDCHAR
STARTCHAR c39
ENCODING -1 39
SWIDTH 193 0
DWIDTH 6 0
BBX 2 6 2 9
BITMAP
C0
C0
C0
C0
80
80
ENDCHAR
STARTCHAR c40
ENCODING -1 40
SWIDTH 258 0
DWIDTH 8 0
BBX 6 21 0 -4
BITMAP
0C
18
30
20
60
60
C0
C0
C0
C0
C0
C0
C0
C0
C0
60
60
20
30
18
0C
ENDCHAR
STARTCHAR c41
ENCODING -1 41
SWIDTH 258 0
DWIDTH 8 0
BBX 6 21 1 -4
BITMAP
C0
60
30
10
18
18
0C
0C
0C
0C
0C
0C
0C
0C
0C
18
18
10
30
60
C0
ENDCHAR
STARTCHAR c42
ENCODING -1 42
SWIDTH 419 0
DWIDTH 13 0
BBX 13 12 0 0
BITMAP
18C0
18C0
0D80
0D80
0700
FFF8
FFF8
0700
0D80
0D80
18C0
18C0
ENDCHAR
STARTCHAR c43
ENCODING -1 43
SWIDTH 419 0
DWIDTH 13 0
BBX 12 13 0 -1
BITMAP
0600
0600
0600
0600
0600
FFF0
FFF0
0600
0600
0600
0600
0600
0600
ENDCHAR
STARTCHAR c44
ENCODING -1 44
SWIDTH 193 0
DWIDTH 6 0
BBX 3 7 1 -4
BITMAP
E0
E0
E0
C0
C0
80
80
ENDCHAR
STARTCHAR c45
ENCODING -1 45
SWIDTH 419 0
DWIDTH 13 0
BBX 12 2 0 5
BITMAP
FFF0
FFF0
ENDCHAR
STARTCHAR c46
ENCODING -1 46
SWIDTH 193 0
DWIDTH 6 0
BBX 3 3 1 0
BITMAP
E0
E0
E0
ENDCHAR
STARTCHAR c47
ENCODING -1 47
SWIDTH 387 0
DWIDTH 12 0
BBX 11 17 0 -1
BITMAP
0060
0040
00C0
0080
0180
0300
0200
0600
0400
0C00
1800
1000
3000
2000
6000
4000
C000
ENDCHAR
STARTCHAR c48
ENCODING -1 48
SWIDTH 387 0
DWIDTH 12 0
BBX 11 15 0 0
BITMAP
1F00
3F80
71C0
60C0
E0E0
E0E0
E0E0
E0E0
E0E0
E0E0
E0E0
60C0
71C0
3F80
1F00
ENDCHAR
STARTCHAR c49
ENCODING -1 49
SWIDTH 387 0
DWIDTH 12 0
BBX 7 15 0 0
BITMAP
0E
1E
3E
6E
EE
4E
0E
0E
0E
0E
0E
0E
0E
0E
0E
ENDCHAR
STARTCHAR c50
ENCODING -1 50
SWIDTH 387 0
DWIDTH 12 0
BBX 9 15 1 0
BITMAP
3E00
FF00
C780
0380
0380
0380
0300
0700
0E00
1C00
3800
7000
E000
FF80
FF80
ENDCHAR
STARTCHAR c51
ENCODING -1 51
SWIDTH 387 0
DWIDTH 12 0
BBX 9 15 1 0
BITMAP
7E00
FF00
C780
0380
0380
0780
7F00
7E00
0700
0380
0380
0380
C780
FF00
7E00
ENDCHAR
STARTCHAR c52
ENCODING -1 52
SWIDTH 387 0
DWIDTH 12 0
BBX 12 15 0 0
BITMAP
0380
0780
0F80
1B80
1B80
3380
7380
6380
FFF0
FFF0
0380
0380
0380
0380
0380
ENDCHAR
STARTCHAR c53
ENCODING -1 53
SWIDTH 387 0
DWIDTH 12 0
BBX 9 15 1 0
BITMAP
7F80
7F80
7000
7000
E000
E000
FE00
FF00
C780
0380
0380
0380
0700
FF00
FC00
ENDCHAR
STARTCHAR c54
ENCODING -1 54
SWIDTH 387 0
DWIDTH 12 0
BBX 10 15 1 0
BITMAP
07C0
1FC0
3800
7000
6000
E000
EF00
FF80
F3C0
E1C0
E1C0
E1C0
7380
7F80
1E00
ENDCHAR
STARTCHAR c55
ENCODING -1 55
SWIDTH 387 0
DWIDTH 12 0
BBX 10 15 0 0
BITMAP
FFC0
FFC0
0180
0380
0300
0700
0600
0E00
0C00
1C00
1800
3800
3000
7000
7000
ENDCHAR
STARTCHAR c56
ENCODING -1 56
SWIDTH 387 0
DWIDTH 12 0
BBX 10 15 1 0
BITMAP
3F00
7F80
F1C0
E0C0
E0C0
7180
7E00
1F80
6380
C1C0
C1C0
C1C0
E3C0
7F80
3F00
ENDCHAR
STARTCHAR c57
ENCODING -1 57
SWIDTH 387 0
DWIDTH 12 0
BBX 10 15 0 0
BITMAP
1E00
7F80
7380
E1C0
E1C0
E1C0
F3C0
7FC0
3DC0
01C0
0180
0380
0700
FE00
F800
ENDCHAR
STARTCHAR c58
ENCODING -1 58
SWIDTH 225 0
DWIDTH 7 0
BBX 3 10 2 0
BITMAP
E0
E0
E0
00
00
00
00
E0
E0
E0
ENDCHAR
STARTCHAR c59
ENCODING -1 59
SWIDTH 225 0
DWIDTH 7 0
BBX 3 14 2 -4
BITMAP
E0
E0
E0
00
00
00
00
E0
E0
E0
C0
C0
80
80
ENDCHAR
STARTCHAR c60
ENCODING -1 60
SWIDTH 419 0
DWIDTH 13 0
BBX 12 12 0 0
BITMAP
0030
00F0
03C0
0F00
3C00
F000
F000
3C00
0F00
03C0
00F0
0030
ENDCHAR
STARTCHAR c61
ENCODING -1 61
SWIDTH 419 0
DWIDTH 13 0
BBX 12 6 0 3
BITMAP
FFF0
FFF0
0000
0000
FFF0
FFF0
ENDCHAR
STARTCHAR c62
ENCODING -1 62
SWIDTH 419 0
DWIDTH 13 0
BBX 12 12 0 0
BITMAP
C000
F000
3C00
0F00
03C0
00F0
00F0
03C0
0F00
3C00
F000
C000
ENDCHAR
STARTCHAR c63
ENCODING -1 63
SWIDTH 258 0
DWIDTH 8 0
BBX 8 15 0 0
BITMAP
3C
FE
CF
07
07
07
0E
1C
38
38
00
00
38
38
38
ENDCHAR
STARTCHAR c64
ENCODING -1 64
SWIDTH 580 0
DWIDTH 18 0
BBX 16 16 1 -2
BITMAP
07E0
1C38
300C
60E6
43E2
C663
C663
CC63
CC63
CC63
CCE2
CFE6
477C
6038
3000
1E00
ENDCHAR
STARTCHAR c65
ENCODING -1 65
SWIDTH 419 0
DWIDTH 13 0
BBX 13 15 0 0
BITMAP
0780
0780
0780
0DC0
0DC0
1DC0
18E0
18E0
3FE0
3FF0
3070
7070
6038
E038
E038
ENDCHAR
STARTCHAR c66
ENCODING -1 66
SWIDTH 419 0
DWIDTH 13 0
BBX 10 15 2 0
BITMAP
FF00
FF80
E3C0
E1C0
E1C0
E380
FF00
FF80
E3C0
E1C0
E1C0
E1C0
E3C0
FF80
FF00
ENDCHAR
STARTCHAR c67
ENCODING -1 67
SWIDTH 387 0
DWIDTH 12 0
BBX 11 15 1 0
BITMAP
0FE0
3FE0
7800
7000
E000
E000
E000
E000
E000
E000
E000
7000
7860
3FE0
0F80
ENDCHAR
STARTCHAR c68
ENCODING -1 68
SWIDTH 483 0
DWIDTH 15 0
BBX 12 15 2 0
BITMAP
FF00
FFC0
E1E0
E0E0
E070
E070
E070
E070
E070
E070
E070
E0E0
E1E0
FFC0
FF00
ENDCHAR
STARTCHAR c69
ENCODING -1 69
SWIDTH 354 0
DWIDTH 11 0
BBX 8 15 2 0
BITMAP
FF
FF
E0
E0
E0
E0
FF
FF
E0
E0
E0
E0
E0
FF
FF
ENDCHAR
STARTCHAR c70
ENCODING -1 70
SWIDTH 322 0
DWIDTH 10 0
BBX 8 15 2 0
BITMAP
FF
FF
E0
E0
E0
E0
FF
FF
E0
E0
E0
E0
E0
E0
E0
ENDCHAR
STARTCHAR c71
ENCODING -1 71
SWIDTH 451 0
DWIDTH 14 0
BBX 12 15 1 0
BITMAP
0FE0
3FE0
7800
7000
E000
E000
E000
E070
E070
E070
E070
7070
7870
3FF0
0F80
ENDCHAR
STARTCHAR c72
ENCODING -1 72
SWIDTH 483 0
DWIDTH 15 0
BBX 11 15 2 0
BITMAP
E0E0
E0E0
E0E0
E0E0
E0E0
E0E0
FFE0
FFE0
E0E0
E0E0
E0E0
E0E0
E0E0
E0E0
E0E0
ENDCHAR
STARTCHAR c73
ENCODING -1 73
SWIDTH 225 0
DWIDTH 7 0
BBX 3 15 2 0
BITMAP
E0
E0
E0
E0
E0
E0
E0
E0
E0
E0
E0
E0
E0
E0
E0
ENDCHAR
STARTCHAR c74
ENCODING -1 74
SWIDTH 258 0
DWIDTH 8 0
BBX 6 15 0 0
BITMAP
1C
1C
1C
1C
1C
1C
1C
1C
1C
1C
1C
1C
18
F8
E0
ENDCHAR
STARTCHAR c75
ENCODING -1 75
SWIDTH 419 0
DWIDTH 13 0
BBX 11 15 2 0
BITMAP
E060
E0E0
E1C0
E380
E300
E700
EE00
FC00
EE00
E700
E780
E380
E1C0
E1E0
E0E0
ENDCHAR
STARTCHAR c76
ENCODING -1 76
SWIDTH 322 0
DWIDTH 10 0
BBX 8 15 2 0
BITMAP
E0
E0
E0
E0
E0
E0
E0
E0
E0
E0
E0
E0
E0
FF
FF
ENDCHAR
STARTCHAR c77
ENCODING -1 77
SWIDTH 645 0
DWIDTH 20 0
BBX 19 15 0 0
BITMAP
1C0700
1C0700
1E0F00
3E0F80
360B80
371B80
371B80
7319C0
63B1C0
63B1C0
63B1C0
E1F1C0
C1E0E0
C1E0E0
C1E0E0
ENDCHAR
STARTCHAR c78
ENCODING -1 78
SWIDTH 516 0
DWIDTH 16 0
BBX 12 15 2 0
BITMAP
F870
F870
F870
FC70
FC70
EE70
EE70
EF70
E770
E770
E3F0
E3F0
E1F0
E1F0
E1F0
ENDCHAR
STARTCHAR c79
ENCODING -1 79
SWIDTH 483 0
DWIDTH 15 0
BBX 13 15 1 0
BITMAP
0F80
3FE0
78F0
7070
E038
E038
E038
E038
E038
E038
E038
7070
78F0
3FE0
0F80
ENDCHAR
STARTCHAR c80
ENCODING -1 80
SWIDTH 387 0
DWIDTH 12 0
BBX 10 15 2 0
BITMAP
FF00
FF80
E3C0
E1C0
E1C0
E3C0
FF80
FF00
E000
E000
E000
E000
E000
E000
E000
ENDCHAR
STARTCHAR c81
ENCODING -1 81
SWIDTH 483 0
DWIDTH 15 0
BBX 14 17 1 -2
BITMAP
0F80
3FE0
78F0
7070
E038
E038
E038
E038
E038
E038
E030
7070
78E0
3FC0
0FF0
007C
001C
ENDCHAR
STARTCHAR c82
ENCODING -1 82
SWIDTH 419 0
DWIDTH 13 0
BBX 10 15 2 0
BITMAP
FF00
FF80
E3C0
E1C0
E1C0
E3C0
FF80
FF00
E600
E700
E700
E380
E380
E1C0
E1C0
ENDCHAR
STARTCHAR c83
ENCODING -1 83
SWIDTH 354 0
DWIDTH 11 0
BBX 9 15 1 0
BITMAP
3F80
7F80
E000
E000
E000
F000
7C00
3E00
1F00
0780
0380
0380
0380
FF00
FE00
ENDCHAR
STARTCHAR c84
ENCODING -1 84
SWIDTH 354 0
DWIDTH 11 0
BBX 11 15 0 0
BITMAP
FFE0
FFE0
0E00
0E00
0E00
0E00
0E00
0E00
0E00
0E00
0E00
0E00
0E00
0E00
0E00
ENDCHAR
STARTCHAR c85
ENCODING -1 85
SWIDTH 483 0
DWIDTH 15 0
BBX 11 15 2 0
BITMAP
E0E0
E0E0
E0E0
E0E0
E0E0
E0E0
E0E0
E0E0
E0E0
E0E0
E0E0
E0E0
71C0
7FC0
1F00
ENDCHAR
STARTCHAR c86
ENCODING -1 86
SWIDTH 419 0
DWIDTH 13 0
BBX 13 15 0 0
BITMAP
E038
E038
E030
7070
7060
7060
38E0
38C0
38C0
1DC0
1D80
1D80
0F00
0F00
0F00
ENDCHAR
STARTCHAR c87
ENCODING -1 87
SWIDTH 677 0
DWIDTH 21 0
BBX 21 15 0 0
BITMAP
E07038
E07038
E07038
E0F870
70F870
70D860
71DCE0
399CE0
399CC0
3B8DC0
1B0D80
1F0F80
1F0780
0E0700
0E0700
ENDCHAR
STARTCHAR c88
ENCODING -1 88
SWIDTH 419 0
DWIDTH 13 0
BBX 12 15 0 0
BITMAP
7070
7870
38E0
1CC0
1DC0
0F80
0700
0700
0F80
1DC0
19C0
38E0
70E0
7070
E070
ENDCHAR
STARTCHAR c89
ENCODING -1 89
SWIDTH 354 0
DWIDTH 11 0
BBX 11 15 0 0
BITMAP
E060
E0E0
F0C0
71C0
3980
3B80
1F00
0E00
0E00
0E00
0E00
0E00
0E00
0E00
0E00
ENDCHAR
STARTCHAR c90
ENCODING -1 90
SWIDTH 322 0
DWIDTH 10 0
BBX 10 15 0 0
BITMAP
FFC0
FFC0
01C0
0380
0700
0700
0E00
1E00
1C00
3800
3800
7000
E000
FFC0
FFC0
ENDCHAR
STARTCHAR c91
ENCODING -1 91
SWIDTH 258 0
DWIDTH 8 0
BBX 5 19 1 -3
BITMAP
F8
C0
C0
C0
C0
C0
C0
C0
C0
C0
C0
C0
C0
C0
C0
C0
C0
C0
F8
ENDCHAR
STARTCHAR c92
ENCODING -1 92
SWIDTH 387 0
DWIDTH 12 0
BBX 11 17 0 -1
BITMAP
C000
4000
6000
2000
3000
1800
0800
0C00
0400
0600
0300
0100
0180
0080
00C0
0040
0060
ENDCHAR
STARTCHAR c93
ENCODING -1 93
SWIDTH 258 0
DWIDTH 8 0
BBX 5 19 1 -3
BITMAP
F8
18
18
18
18
18
18
18
18
18
18
18
18
18
18
18
18
18
F8
ENDCHAR
STARTCHAR c94
ENCODING -1 94
SWIDTH 419 0
DWIDTH 13 0
BBX 10 12 1 0
BITMAP
0C00
1E00
3F00
6D80
CCC0
8C40
0C00
0C00
0C00
0C00
0C00
0C00
ENDCHAR
STARTCHAR c95
ENCODING -1 95
SWIDTH 225 0
DWIDTH 7 0
BBX 6 2 0 4
BITMAP
FC
FC
ENDCHAR
STARTCHAR c96
ENCODING -1 96
SWIDTH 322 0
DWIDTH 10 0
BBX 4 5 2 12
BITMAP
C0
E0
60
30
10
ENDCHAR
STARTCHAR c97
ENCODING -1 97
SWIDTH 322 0
DWIDTH 10 0
BBX 9 11 0 0
BITMAP
1E00
7F00
E700
4700
0700
7F00
E700
E700
E700
FF00
7780
ENDCHAR
STARTCHAR c98
ENCODING -1 98
SWIDTH 354 0
DWIDTH 11 0
BBX 9 16 1 0
BITMAP
E000
E000
E000
E000
E000
E700
EF80
F380
E380
E380
E380
E380
E300
E700
FE00
F800
ENDCHAR
STARTCHAR c99
ENCODING -1 99
SWIDTH 258 0
DWIDTH 8 0
BBX 8 11 0 0
BITMAP
1F
7F
70
E0
E0
E0
E0
E0
F3
7F
3C
ENDCHAR
STARTCHAR c100
ENCODING -1 100
SWIDTH 354 0
DWIDTH 11 0
BBX 9 16 0 0
BITMAP
0380
0380
0380
0380
0380
0F80
3F80
7380
6380
E380
E380
E380
E380
E780
FB80
7380
ENDCHAR
STARTCHAR c101
ENCODING -1 101
SWIDTH 322 0
DWIDTH 10 0
BBX 9 11 0 0
BITMAP
1E00
7F00
7380
E180
FF80
FF80
E000
E000
F100
7F80
3E00
ENDCHAR
STARTCHAR c102
ENCODING -1 102
SWIDTH 193 0
DWIDTH 6 0
BBX 6 16 0 0
BITMAP
1C
3C
70
70
70
FC
FC
70
70
70
70
70
70
70
70
70
ENDCHAR
STARTCHAR c103
ENCODING -1 103
SWIDTH 322 0
DWIDTH 10 0
BBX 9 16 0 -5
BITMAP
3F80
7F80
E300
E300
E300
FE00
7C00
1000
6000
7F00
3F80
6380
C380
C380
FF00
7C00
ENDCHAR
STARTCHAR c104
ENCODING -1 104
SWIDTH 387 0
DWIDTH 12 0
BBX 9 16 1 0
BITMAP
E000
E000
E000
E000
E000
E700
EF80
F380
E380
E380
E380
E380
E380
E380
E380
E380
ENDCHAR
STARTCHAR c105
ENCODING -1 105
SWIDTH 193 0
DWIDTH 6 0
BBX 3 16 1 0
BITMAP
E0
E0
E0
00
00
E0
E0
E0
E0
E0
E0
E0
E0
E0
E0
E0
ENDCHAR
STARTCHAR c106
ENCODING -1 106
SWIDTH 225 0
DWIDTH 7 0
BBX 5 22 0 -6
BITMAP
38
38
38
00
00
38
38
38
38
38
38
38
38
38
38
38
38
38
38
30
F0
C0
ENDCHAR
STARTCHAR c107
ENCODING -1 107
SWIDTH 322 0
DWIDTH 10 0
BBX 9 16 1 0
BITMAP
E000
E000
E000
E000
E000
E380
E380
E700
EE00
EC00
F800
FC00
EE00
E700
E780
E380
ENDCHAR
STARTCHAR c108
ENCODING -1 108
SWIDTH 193 0
DWIDTH 6 0
BBX 3 17 1 0
BITMAP
E0
E0
E0
E0
E0
E0
E0
E0
E0
E0
E0
E0
E0
E0
E0
E0
E0
ENDCHAR
STARTCHAR c109
ENCODING -1 109
SWIDTH 580 0
DWIDTH 18 0
BBX 15 11 1 0
BITMAP
E71C
EFBE
F3CE
E38E
E38E
E38E
E38E
E38E
E38E
E38E
E38E
ENDCHAR
STARTCHAR c110
ENCODING -1 110
SWIDTH 387 0
DWIDTH 12 0
BBX 9 11 1 0
BITMAP
E700
EF80
F380
E380
E380
E380
E380
E380
E380
E380
E380
ENDCHAR
STARTCHAR c111
ENCODING -1 111
SWIDTH 354 0
DWIDTH 11 0
BBX 10 11 0 0
BITMAP
1E00
7F80
7380
E1C0
E1C0
E1C0
E1C0
E1C0
F380
7F80
1E00
ENDCHAR
STARTCHAR c112
ENCODING -1 112
SWIDTH 354 0
DWIDTH 11 0
BBX 9 16 1 -5
BITMAP
E700
EF80
F380
E380
E380
E380
E380
E300
E700
FE00
F800
E000
E000
E000
E000
E000
ENDCHAR
STARTCHAR c113
ENCODING -1 113
SWIDTH 354 0
DWIDTH 11 0
BBX 9 16 0 -5
BITMAP
0F80
3F80
7380
6380
E380
E380
E380
E380
E780
FB80
7380
0380
0380
0380
0380
0380
ENDCHAR
STARTCHAR c114
ENCODING -1 114
SWIDTH 258 0
DWIDTH 8 0
BBX 7 11 1 0
BITMAP
EE
EE
FE
F0
E0
E0
E0
E0
E0
E0
E0
ENDCHAR
STARTCHAR c115
ENCODING -1 115
SWIDTH 258 0
DWIDTH 8 0
BBX 7 11 0 0
BITMAP
7E
FE
E0
E0
F8
7C
3E
0E
0E
FE
FC
ENDCHAR
STARTCHAR c116
ENCODING -1 116
SWIDTH 225 0
DWIDTH 7 0
BBX 7 14 0 0
BITMAP
70
70
70
FE
FE
70
70
70
70
70
70
76
7E
3C
ENDCHAR
STARTCHAR c117
ENCODING -1 117
SWIDTH 387 0
DWIDTH 12 0
BBX 9 11 1 0
BITMAP
E380
E380
E380
E380
E380
E380
E380
E380
E780
FB80
7380
ENDCHAR
STARTCHAR c118
ENCODING -1 118
SWIDTH 322 0
DWIDTH 10 0
BBX 10 11 0 0
BITMAP
E1C0
E1C0
E180
E380
7300
7300
7700
7600
3E00
3C00
3C00
ENDCHAR
STARTCHAR c119
ENCODING -1 119
SWIDTH 548 0
DWIDTH 17 0
BBX 17 11 0 0
BITMAP
E1C380
E1C380
E1C300
E3C700
73E600
73E600
76EC00
76EC00
3E7C00
3C7800
3C7800
ENDCHAR
STARTCHAR c120
ENCODING -1 120
SWIDTH 322 0
DWIDTH 10 0
BBX 9 11 0 0
BITMAP
E180
F180
7300
7B00
3E00
1C00
3E00
6F00
6700
C780
C380
ENDCHAR
STARTCHAR c121
ENCODING -1 121
SWIDTH 322 0
DWIDTH 10 0
BBX 10 16 0 -5
BITMAP
E1C0
E1C0
E180
E380
7300
7300
7700
7600
3E00
3C00
3C00
1800
3800
3000
F000
E000
ENDCHAR
STARTCHAR c122
ENCODING -1 122
SWIDTH 290 0
DWIDTH 9 0
BBX 8 11 0 0
BITMAP
FF
FF
06
0E
1C
18
38
70
60
FF
FF
ENDCHAR
STARTCHAR c123
ENCODING -1 123
SWIDTH 290 0
DWIDTH 9 0
BBX 8 21 0 -4
BITMAP
07
0C
08
18
18
18
18
18
10
30
C0
30
10
18
18
18
18
18
08
0C
07
ENDCHAR
STARTCHAR c124
ENCODING -1 124
SWIDTH 290 0
DWIDTH 9 0
BBX 2 20 3 -4
BITMAP
C0
C0
C0
C0
C0
C0
C0
C0
C0
C0
C0
C0
C0
C0
C0
C0
C0
C0
C0
C0
ENDCHAR
STARTCHAR c125
ENCODING -1 125
SWIDTH 290 0
DWIDTH 9 0
BBX 8 21 0 -4
BITMAP
E0
30
10
18
18
18
18
18
08
0C
03
0C
08
18
18
18
18
18
10
30
E0
ENDCHAR
STARTCHAR c126
ENCODING -1 126
SWIDTH 451 0
DWIDTH 14 0
BBX 13 5 0 3
BITMAP
3C18
7E18
C718
C3F0
C1E0
ENDCHAR
STARTCHAR c128
ENCODING -1 128
SWIDTH 419 0
DWIDTH 13 0
BBX 13 17 0 0
BITMAP
0CC0
0CC0
0780
0780
0780
0DC0
0DC0
1DC0
18E0
18E0
3FE0
3FF0
3070
7070
6038
E038
E038
ENDCHAR
STARTCHAR c129
ENCODING -1 129
SWIDTH 483 0
DWIDTH 15 0
BBX 13 17 1 0
BITMAP
18C0
18C0
0F80
3FE0
78F0
7070
E038
E038
E038
E038
E038
E038
E038
7070
78F0
3FE0
0F80
ENDCHAR
STARTCHAR c130
ENCODING -1 130
SWIDTH 483 0
DWIDTH 15 0
BBX 11 17 2 0
BITMAP
1B00
1B00
E0E0
E0E0
E0E0
E0E0
E0E0
E0E0
E0E0
E0E0
E0E0
E0E0
E0E0
E0E0
71C0
7FC0
1F00
ENDCHAR
STARTCHAR c131
ENCODING -1 131
SWIDTH 322 0
DWIDTH 10 0
BBX 9 15 0 0
BITMAP
7700
7700
0000
0000
1E00
7F00
E700
4700
0700
7F00
E700
E700
E700
FF00
7780
ENDCHAR
STARTCHAR c132
ENCODING -1 132
SWIDTH 354 0
DWIDTH 11 0
BBX 10 15 0 0
BITMAP
7380
7380
0000
0000
1E00
7F80
7380
E1C0
E1C0
E1C0
E1C0
E1C0
F380
7F80
1E00
ENDCHAR
STARTCHAR c133
ENCODING -1 133
SWIDTH 387 0
DWIDTH 12 0
BBX 9 15 1 0
BITMAP
7700
7700
0000
0000
E380
E380
E380
E380
E380
E380
E380
E380
E780
FB80
7380
ENDCHAR
STARTCHAR c134
ENCODING -1 134
SWIDTH 322 0
DWIDTH 10 0
BBX 9 16 0 0
BITMAP
1800
3C00
6600
4200
0000
1E00
7F00
E700
4700
0700
7F00
E700
E700
E700
FF00
7780
ENDCHAR
STARTCHAR c135
ENCODING -1 135
SWIDTH 322 0
DWIDTH 10 0
BBX 9 16 0 0
BITMAP
0C00
1E00
3300
2100
0000
1E00
7F00
7380
E180
FF80
FF80
E000
E000
F180
7F80
3E00
ENDCHAR
STARTCHAR c136
ENCODING -1 136
SWIDTH 193 0
DWIDTH 6 0
BBX 5 16 0 0
BITMAP
20
70
D8
88
00
70
70
70
70
70
70
70
70
70
70
70
ENDCHAR
STARTCHAR c137
ENCODING -1 137
SWIDTH 354 0
DWIDTH 11 0
BBX 10 16 0 0
BITMAP
0C00
1E00
3300
2100
0000
1E00
7F80
7380
E1C0
E1C0
E1C0
E1C0
E1C0
F380
7F80
1E00
ENDCHAR
STARTCHAR c138
ENCODING -1 138
SWIDTH 387 0
DWIDTH 12 0
BBX 9 16 1 0
BITMAP
1C00
3600
6300
4100
0000
E380
E380
E380
E380
E380
E380
E380
E380
E780
FB80
7380
ENDCHAR
STARTCHAR c139
ENCODING -1 139
SWIDTH 322 0
DWIDTH 10 0
BBX 9 17 0 0
BITMAP
3000
3800
1800
0C00
0400
0000
1E00
7F00
E700
4700
0700
7F00
E700
E700
E700
FF00
7780
ENDCHAR
STARTCHAR c140
ENCODING -1 140
SWIDTH 322 0
DWIDTH 10 0
BBX 9 17 0 0
BITMAP
3000
3800
1800
0C00
0400
0000
1E00
7F00
7380
E380
FF80
FF80
E000
E000
F180
7F80
3E00
ENDCHAR
STARTCHAR c141
ENCODING -1 141
SWIDTH 193 0
DWIDTH 6 0
BBX 4 17 0 0
BITMAP
C0
E0
60
30
10
00
70
70
70
70
70
70
70
70
70
70
70
ENDCHAR
STARTCHAR c142
ENCODING -1 142
SWIDTH 354 0
DWIDTH 11 0
BBX 10 17 0 0
BITMAP
1800
1C00
0C00
0600
0200
0000
1E00
7F80
7380
E1C0
E1C0
E1C0
E1C0
E1C0
F380
7F80
1E00
ENDCHAR
STARTCHAR c143
ENCODING -1 143
SWIDTH 387 0
DWIDTH 12 0
BBX 9 17 1 0
BITMAP
3000
3800
1800
0C00
0400
0000
E380
E380
E380
E380
E380
E380
E380
E380
E780
FB80
7380
ENDCHAR
STARTCHAR c144
ENCODING -1 144
SWIDTH 322 0
DWIDTH 10 0
BBX 9 17 0 0
BITMAP
0300
0700
0600
0C00
0800
0000
1E00
7F00
7380
E380
FF80
FF80
E000
E000
F180
7F80
3E00
ENDCHAR
STARTCHAR c145
ENCODING -1 145
SWIDTH 322 0
DWIDTH 10 0
BBX 9 15 0 0
BITMAP
7380
7380
0000
0000
1E00
7F00
7380
E380
FF80
FF80
E000
E000
F180
7F80
3E00
ENDCHAR
STARTCHAR c146
ENCODING -1 146
SWIDTH 193 0
DWIDTH 6 0
BBX 5 15 0 0
BITMAP
D8
D8
00
00
70
70
70
70
70
70
70
70
70
70
70
ENDCHAR
STARTCHAR c147
ENCODING -1 147
SWIDTH 258 0
DWIDTH 8 0
BBX 8 16 0 -5
BITMAP
1F
7F
70
E0
E0
E0
E0
E0
F3
7F
3C
00
1C
0C
08
10
ENDCHAR
STARTCHAR c148
ENCODING -1 148
SWIDTH 322 0
DWIDTH 10 0
BBX 9 17 0 0
BITMAP
0300
0700
0600
0C00
0800
0000
1E00
7F00
E700
4700
0700
7F00
E700
E700
E700
FF00
7780
ENDCHAR
STARTCHAR c149
ENCODING -1 149
SWIDTH 387 0
DWIDTH 12 0
BBX 9 17 1 0
BITMAP
3180
7980
CF00
C600
0000
0000
E700
EF80
F380
E380
E380
E380
E380
E380
E380
E380
E380
ENDCHAR
STARTCHAR c155
ENCODING -1 155
SWIDTH 419 0
DWIDTH 13 0
BBX 13 2 0 5
BITMAP
FFF8
FFF8
ENDCHAR
STARTCHAR c159
ENCODING -1 159
SWIDTH 387 0
DWIDTH 12 0
BBX 0 0 0 0
BITMAP
ENDCHAR
ENDFONT
